<svg width="54" height="54" viewBox="0 0 54 54" fill="none" xmlns="http://www.w3.org/2000/svg">
<path fill-rule="evenodd" clip-rule="evenodd" d="M27 8.99979C31.9635 8.99979 36 13.0363 36 17.9998C36 22.9633 31.9635 26.9998 27 26.9998C22.0365 26.9998 18 22.9633 18 17.9998C18 13.0363 22.0365 8.99979 27 8.99979ZM42.6802 46.6895L37.485 26.4868C39.366 24.1648 40.5 21.215 40.5 17.9998C40.5 10.5545 34.4452 4.49979 27 4.49979C19.5547 4.49979 13.5 10.5545 13.5 17.9998C13.5 21.215 14.634 24.1648 16.515 26.4868L11.3197 46.6895C11.0947 47.5715 11.4187 48.5008 12.1455 49.0475C12.8722 49.5943 13.8555 49.6438 14.6385 49.1893L26.631 42.149L39.411 49.2185C39.7507 49.4075 40.1265 49.4998 40.5 49.4998C40.9882 49.4998 41.4742 49.3423 41.877 49.0295C42.588 48.4805 42.903 47.5603 42.6802 46.6895Z" fill="#DD2F30"/>
<mask id="mask0_3_2645" style="mask-type:luminance" maskUnits="userSpaceOnUse" x="11" y="4" width="32" height="46">
<path fill-rule="evenodd" clip-rule="evenodd" d="M27 8.99979C31.9635 8.99979 36 13.0363 36 17.9998C36 22.9633 31.9635 26.9998 27 26.9998C22.0365 26.9998 18 22.9633 18 17.9998C18 13.0363 22.0365 8.99979 27 8.99979ZM42.6802 46.6895L37.485 26.4868C39.366 24.1648 40.5 21.215 40.5 17.9998C40.5 10.5545 34.4452 4.49979 27 4.49979C19.5547 4.49979 13.5 10.5545 13.5 17.9998C13.5 21.215 14.634 24.1648 16.515 26.4868L11.3197 46.6895C11.0947 47.5715 11.4187 48.5008 12.1455 49.0475C12.8722 49.5943 13.8555 49.6438 14.6385 49.1893L26.631 42.149L39.411 49.2185C39.7507 49.4075 40.1265 49.4998 40.5 49.4998C40.9882 49.4998 41.4742 49.3423 41.877 49.0295C42.588 48.4805 42.903 47.5603 42.6802 46.6895Z" fill="white"/>
</mask>
<g mask="url(#mask0_3_2645)">
<rect width="54" height="54" fill="#DD2F30"/>
</g>
</svg>
