<svg width="54" height="54" viewBox="0 0 54 54" fill="none" xmlns="http://www.w3.org/2000/svg">
<path fill-rule="evenodd" clip-rule="evenodd" d="M47.2432 24.6917H47.25C48.4897 24.6917 49.4977 25.6952 49.5 26.935C49.518 32.9447 47.1937 38.6035 42.9547 42.865C38.718 47.1265 33.075 49.4822 27.0652 49.5002H27C21.0127 49.5002 15.381 47.1782 11.1352 42.955C6.87375 38.7182 4.518 33.0752 4.5 27.0655C4.482 21.0535 6.80625 15.397 11.0452 11.1355C15.282 6.87398 20.925 4.51823 26.9347 4.50023C28.7235 4.52723 30.546 4.70723 32.292 5.12573C33.498 5.41823 34.2427 6.63323 33.9502 7.84148C33.66 9.04748 32.4382 9.78998 31.2367 9.50198C29.8395 9.16448 28.3567 9.02273 26.9482 9.00023C22.14 9.01373 17.6242 10.8992 14.2357 14.308C10.845 17.7167 8.9865 22.2437 9 27.052C9.0135 31.8602 10.899 36.3737 14.3077 39.7645C17.7052 43.1417 22.2097 45.0002 27 45.0002H27.0517C31.86 44.9867 36.3757 43.1012 39.7642 39.6925C43.155 36.2815 45.0135 31.7567 45 26.9485C44.9977 25.7065 46.0012 24.694 47.2432 24.6917ZM18.6592 25.4093C19.539 24.5295 20.961 24.5295 21.8407 25.4093L26.8897 30.4583L41.058 14.2673C41.877 13.338 43.2967 13.239 44.2327 14.058C45.1665 14.8748 45.261 16.2968 44.442 17.2328L28.692 35.2328C28.2825 35.7008 27.6975 35.9775 27.0742 36H27C26.4037 36 25.8322 35.7638 25.4092 35.3408L18.6592 28.5908C17.7795 27.711 17.7795 26.289 18.6592 25.4093Z" fill="#DD2F30"/>
<mask id="mask0_2060_1750" style="mask-type:luminance" maskUnits="userSpaceOnUse" x="4" y="4" width="46" height="46">
<path fill-rule="evenodd" clip-rule="evenodd" d="M47.2432 24.6917H47.25C48.4897 24.6917 49.4977 25.6952 49.5 26.935C49.518 32.9447 47.1937 38.6035 42.9547 42.865C38.718 47.1265 33.075 49.4822 27.0652 49.5002H27C21.0127 49.5002 15.381 47.1782 11.1352 42.955C6.87375 38.7182 4.518 33.0752 4.5 27.0655C4.482 21.0535 6.80625 15.397 11.0452 11.1355C15.282 6.87398 20.925 4.51823 26.9347 4.50023C28.7235 4.52723 30.546 4.70723 32.292 5.12573C33.498 5.41823 34.2427 6.63323 33.9502 7.84148C33.66 9.04748 32.4382 9.78998 31.2367 9.50198C29.8395 9.16448 28.3567 9.02273 26.9482 9.00023C22.14 9.01373 17.6242 10.8992 14.2357 14.308C10.845 17.7167 8.9865 22.2437 9 27.052C9.0135 31.8602 10.899 36.3737 14.3077 39.7645C17.7052 43.1417 22.2097 45.0002 27 45.0002H27.0517C31.86 44.9867 36.3757 43.1012 39.7642 39.6925C43.155 36.2815 45.0135 31.7567 45 26.9485C44.9977 25.7065 46.0012 24.694 47.2432 24.6917ZM18.6592 25.4093C19.539 24.5295 20.961 24.5295 21.8407 25.4093L26.8897 30.4583L41.058 14.2673C41.877 13.338 43.2967 13.239 44.2327 14.058C45.1665 14.8748 45.261 16.2968 44.442 17.2328L28.692 35.2328C28.2825 35.7008 27.6975 35.9775 27.0742 36H27C26.4037 36 25.8322 35.7638 25.4092 35.3408L18.6592 28.5908C17.7795 27.711 17.7795 26.289 18.6592 25.4093Z" fill="white"/>
</mask>
<g mask="url(#mask0_2060_1750)">
<rect width="54" height="54" fill="#DD2F30"/>
</g>
</svg>
