<svg width="54" height="54" viewBox="0 0 54 54" fill="none" xmlns="http://www.w3.org/2000/svg">
<path fill-rule="evenodd" clip-rule="evenodd" d="M27 9.32961L11.25 18.1901V18.5164C11.25 29.1814 17.0235 39.0566 26.3205 44.2879L27 44.6704L27.6795 44.2879C36.9765 39.0566 42.75 29.1814 42.75 18.5164V18.1901L27 9.32961ZM27 49.1636C26.2373 49.1636 25.4745 48.9746 24.7972 48.5921L24.1155 48.2074C13.4032 42.1841 6.75 30.8059 6.75 18.5164V18.1901C6.75 16.5724 7.6275 15.0694 9.0405 14.2706L24.795 5.41011C26.1563 4.64511 27.846 4.64286 29.2028 5.40786L44.955 14.2684C46.3725 15.0694 47.25 16.5724 47.25 18.1901V18.5164C47.25 30.8059 40.5967 42.1841 29.8845 48.2074L29.205 48.5899C28.5255 48.9724 27.7627 49.1636 27 49.1636V49.1636Z" fill="#DD2F30"/>
<mask id="mask0_2060_1751" style="mask-type:luminance" maskUnits="userSpaceOnUse" x="6" y="4" width="42" height="46">
<path fill-rule="evenodd" clip-rule="evenodd" d="M27 9.32961L11.25 18.1901V18.5164C11.25 29.1814 17.0235 39.0566 26.3205 44.2879L27 44.6704L27.6795 44.2879C36.9765 39.0566 42.75 29.1814 42.75 18.5164V18.1901L27 9.32961ZM27 49.1636C26.2373 49.1636 25.4745 48.9746 24.7972 48.5921L24.1155 48.2074C13.4032 42.1841 6.75 30.8059 6.75 18.5164V18.1901C6.75 16.5724 7.6275 15.0694 9.0405 14.2706L24.795 5.41011C26.1563 4.64511 27.846 4.64286 29.2028 5.40786L44.955 14.2684C46.3725 15.0694 47.25 16.5724 47.25 18.1901V18.5164C47.25 30.8059 40.5967 42.1841 29.8845 48.2074L29.205 48.5899C28.5255 48.9724 27.7627 49.1636 27 49.1636V49.1636Z" fill="white"/>
</mask>
<g mask="url(#mask0_2060_1751)">
<rect width="54" height="54" fill="#DD2F30"/>
</g>
</svg>
