<svg width="61" height="61" viewBox="0 0 61 61" fill="none" xmlns="http://www.w3.org/2000/svg">
<g clip-path="url(#clip0_10_1598)">
<g clip-path="url(#clip1_10_1598)">
<path d="M24.0465 4.95312C20.3452 4.95312 16.9904 7.13083 15.4836 10.5114L9.38656 24.1906C5.73148 24.4418 2.84375 27.4843 2.84375 31.2031V36.5938C2.84375 39.8298 5.46711 42.4531 8.70312 42.4531H10.3092C10.3179 42.0022 10.3293 41.5514 10.3438 41.1005C9.9623 40.323 9.74727 39.449 9.74727 38.5245L9.64062 34.3672C9.64062 31.2927 10.2662 30.1094 12.5483 29.6497C13.6331 29.4311 14.5413 28.692 14.9858 27.6786L22.5148 10.5114C24.0215 7.13083 27.3764 4.95312 31.0777 4.95312H24.0465Z" fill="#EEF1FB"/>
<path d="M8.70312 42.4531C5.46711 42.4531 2.84375 39.8298 2.84375 36.5938V31.2031C2.84375 27.4843 5.73148 24.4418 9.38656 24.1906L15.4836 10.5114C16.9903 7.13083 20.3451 4.95312 24.0465 4.95312H34.7217C38.2441 4.95312 41.4692 6.9275 43.0711 10.0646L46.0859 15.9688M58.1562 31.2031C58.1562 27.3199 55.0082 24.1719 51.125 24.1719H19.1328M28.7422 15.9688V5.07031M32.9609 42.4531H27.6873M21.242 37.7656C18.6532 37.7656 16.5545 39.8643 16.5545 42.4531C16.5545 45.0419 18.6532 47.1406 21.242 47.1406C23.8307 47.1406 25.9295 45.0419 25.9295 42.4531C25.9295 39.8643 23.8309 37.7656 21.242 37.7656Z" stroke="#405FF2" stroke-width="3" stroke-miterlimit="10" stroke-linecap="round" stroke-linejoin="round"/>
<path d="M58.1562 42.1016C58.1562 46.5997 54.5097 50.3047 50.0117 50.3047C45.5136 50.3047 41.8671 46.6583 41.8671 42.1602C41.8671 37.662 45.5722 34.0156 50.0703 34.0156M44.0351 48.6055L36.5938 56.0469" stroke="#FF5CF3" stroke-width="3" stroke-miterlimit="10" stroke-linecap="round" stroke-linejoin="round"/>
</g>
</g>
<defs>
<clipPath id="clip0_10_1598">
<rect width="60" height="60" fill="white" transform="translate(0.5 0.5)"/>
</clipPath>
<clipPath id="clip1_10_1598">
<rect width="60" height="60" fill="white" transform="translate(0.5 0.5)"/>
</clipPath>
</defs>
</svg>
