<svg width="70" height="76" viewBox="0 0 70 76" fill="none" xmlns="http://www.w3.org/2000/svg">
<g filter="url(#filter0_d_3_2701)">
<rect x="4" width="62" height="68" fill="#DD2F30"/>
<g clip-path="url(#clip0_3_2701)">
<path d="M41.6146 33.2284L42.0355 34.074H50.2952V10H18.709V34.074H26.9687L27.3896 33.2284C27.9011 32.2037 28.6627 31.4039 29.6681 30.8348V45.2427C27.6808 46.5336 26.3917 48.5986 26.3917 50.9219C26.3917 54.8246 30.0302 58 34.5021 58C38.974 58 42.6124 54.8246 42.6124 50.9219C42.6124 48.5986 41.3234 46.5336 39.3361 45.2427V30.8348C40.3415 31.4039 41.1031 32.2037 41.6146 33.2284ZM47.0726 20.9999H21.9316V18.3126H47.0726V20.9999ZM47.0726 12.8125V15.5001H21.9316V12.8125H47.0726ZM28.6208 28.1069C27.0426 28.8372 25.8001 29.8955 24.9168 31.2615H21.9316V23.8127H47.0726V31.2615H44.0874C43.2045 29.8955 41.9625 28.8372 40.3834 28.1069C38.7419 27.3474 36.7634 26.9622 34.5021 26.9622C32.2408 26.9622 30.2623 27.3474 28.6208 28.1069ZM34.5021 55.1875C31.8069 55.1875 29.6144 53.274 29.6144 50.9219C29.6144 49.3384 30.6072 47.9548 32.0788 47.2188C32.793 46.8606 33.6213 46.6562 34.5021 46.6562C35.3829 46.6562 36.2112 46.8606 36.9254 47.2188C38.3974 47.9548 39.3898 49.3384 39.3898 50.9219C39.3898 53.274 37.1973 55.1875 34.5021 55.1875ZM36.1134 43.9844C35.5927 43.8925 35.0531 43.8438 34.5021 43.8438C33.9511 43.8438 33.4119 43.8925 32.8908 43.9844V29.8629C33.3977 29.8036 33.9348 29.7747 34.5021 29.7747C35.0694 29.7747 35.6065 29.8036 36.1134 29.8629V43.9844Z" fill="#FEFEFE"/>
<path d="M36.4542 50.9219C36.4542 51.8627 35.5801 52.6255 34.5021 52.6255C33.4241 52.6255 32.5505 51.8627 32.5505 50.9219C32.5505 49.9811 33.4241 49.2183 34.5021 49.2183C35.5801 49.2183 36.4542 49.9811 36.4542 50.9219Z" fill="#FEFEFE"/>
</g>
</g>
<defs>
<filter id="filter0_d_3_2701" x="0" y="0" width="70" height="76" filterUnits="userSpaceOnUse" color-interpolation-filters="sRGB">
<feFlood flood-opacity="0" result="BackgroundImageFix"/>
<feColorMatrix in="SourceAlpha" type="matrix" values="0 0 0 0 0 0 0 0 0 0 0 0 0 0 0 0 0 0 127 0" result="hardAlpha"/>
<feOffset dy="4"/>
<feGaussianBlur stdDeviation="2"/>
<feComposite in2="hardAlpha" operator="out"/>
<feColorMatrix type="matrix" values="0 0 0 0 0 0 0 0 0 0 0 0 0 0 0 0 0 0 0.25 0"/>
<feBlend mode="normal" in2="BackgroundImageFix" result="effect1_dropShadow_3_2701"/>
<feBlend mode="normal" in="SourceGraphic" in2="effect1_dropShadow_3_2701" result="shape"/>
</filter>
<clipPath id="clip0_3_2701">
<rect width="33" height="48" fill="white" transform="translate(18 10)"/>
</clipPath>
</defs>
</svg>
