<svg width="62" height="68" viewBox="0 0 62 68" fill="none" xmlns="http://www.w3.org/2000/svg">
<rect width="62" height="68" fill="#DD2F30"/>
<path d="M20.415 30.1539H33.715C33.8398 30.154 33.9633 30.1292 34.0786 30.0809C34.1939 30.0326 34.2987 29.9618 34.3869 29.8725C34.4751 29.7832 34.5451 29.6771 34.5928 29.5604C34.6405 29.4438 34.6651 29.3187 34.665 29.1924V19.577C34.6651 19.4507 34.6405 19.3257 34.5928 19.209C34.5451 19.0923 34.4751 18.9863 34.3869 18.897C34.2987 18.8077 34.1939 18.7368 34.0786 18.6885C33.9633 18.6402 33.8398 18.6154 33.715 18.6155H20.415C20.2902 18.6154 20.1667 18.6402 20.0514 18.6885C19.9361 18.7368 19.8313 18.8077 19.7431 18.897C19.6549 18.9863 19.5849 19.0923 19.5372 19.209C19.4895 19.3257 19.4649 19.4507 19.465 19.577V29.1924C19.4649 29.3187 19.4895 29.4438 19.5372 29.5604C19.5849 29.6771 19.6549 29.7832 19.7431 29.8725C19.8313 29.9618 19.9361 30.0326 20.0514 30.0809C20.1667 30.1292 20.2902 30.154 20.415 30.1539ZM21.365 20.5386H32.765V28.2309H27.6521L28.8647 25.7763C28.9774 25.5482 28.9959 25.2841 28.9162 25.0422C28.8366 24.8002 28.6652 24.6002 28.4398 24.4862C28.2144 24.3721 27.9535 24.3533 27.7144 24.434C27.4754 24.5146 27.2778 24.6881 27.1651 24.9162L25.5277 28.2309H21.365V20.5386Z" fill="#FEFEFE"/>
<path d="M51.6051 24.8129C51.536 24.7077 51.4471 24.6174 51.3435 24.547C51.2398 24.4767 51.1235 24.4277 51.0011 24.4029C50.8787 24.3781 50.7527 24.3781 50.6303 24.4026C50.5079 24.4272 50.3915 24.476 50.2877 24.5463L44.5877 28.3924C44.4577 28.4803 44.3511 28.5992 44.2773 28.7388C44.2036 28.8783 44.165 29.0341 44.165 29.1924V46.5001C44.165 46.7551 44.0649 46.9996 43.8867 47.18C43.7086 47.3603 43.4669 47.4616 43.215 47.4616C42.963 47.4616 42.7214 47.3603 42.5432 47.18C42.3651 46.9996 42.265 46.7551 42.265 46.5001V38.8077C42.2642 38.043 41.9637 37.3097 41.4294 36.7689C40.8951 36.2281 40.1706 35.9239 39.415 35.9231H38.465V15.7308C38.4651 15.6045 38.4405 15.4795 38.3928 15.3628C38.3451 15.2461 38.2751 15.1401 38.1869 15.0508C38.0987 14.9615 37.9939 14.8906 37.8786 14.8423C37.7633 14.794 37.6398 14.7692 37.515 14.7693H16.615C16.4902 14.7692 16.3667 14.794 16.2514 14.8423C16.1361 14.8906 16.0313 14.9615 15.9431 15.0508C15.8549 15.1401 15.7849 15.2461 15.7372 15.3628C15.6895 15.4795 15.6649 15.6045 15.665 15.7308V52.2693C15.6649 52.3956 15.6895 52.5206 15.7372 52.6373C15.7849 52.754 15.8549 52.8601 15.9431 52.9494C16.0313 53.0387 16.1361 53.1095 16.2514 53.1578C16.3667 53.2061 16.4902 53.2309 16.615 53.2308H37.515C37.6398 53.2309 37.7633 53.2061 37.8786 53.1578C37.9939 53.1095 38.0987 53.0387 38.1869 52.9494C38.2751 52.8601 38.3451 52.754 38.3928 52.6373C38.4405 52.5206 38.4651 52.3956 38.465 52.2693V37.8462H39.415C39.6668 37.8466 39.9083 37.948 40.0864 38.1282C40.2645 38.3085 40.3647 38.5528 40.365 38.8077V46.5001C40.365 47.2651 40.6653 47.9988 41.1997 48.5398C41.7342 49.0808 42.4591 49.3847 43.215 49.3847C43.9709 49.3847 44.6958 49.0808 45.2302 48.5398C45.7647 47.9988 46.065 47.2651 46.065 46.5001V32.077H48.915C49.0398 32.0771 49.1633 32.0522 49.2786 32.0039C49.3939 31.9556 49.4987 31.8848 49.5869 31.7955C49.6751 31.7062 49.7451 31.6002 49.7928 31.4835C49.8405 31.3668 49.8651 31.2417 49.865 31.1154V27.2693C49.8599 27.2317 49.8525 27.1945 49.8428 27.1578L51.3419 26.1463C51.4457 26.0763 51.5349 25.9862 51.6044 25.8813C51.6738 25.7764 51.7221 25.6586 51.7466 25.5348C51.771 25.411 51.7711 25.2835 51.7468 25.1596C51.7225 25.0358 51.6744 24.918 51.6051 24.8129ZM36.565 16.6924V47.4616H17.565V16.6924H36.565ZM17.565 51.3078V49.3847H36.565V51.3078H17.565ZM47.9647 30.1539H46.0647V29.7068L47.9647 28.4247V30.1539Z" fill="#FEFEFE"/>
<path d="M27.065 34C25.2522 34 23.265 38.0489 23.265 39.7692C23.265 40.7893 23.6654 41.7676 24.378 42.4889C25.0906 43.2102 26.0572 43.6154 27.065 43.6154C28.0728 43.6154 29.0394 43.2102 29.752 42.4889C30.4646 41.7676 30.865 40.7893 30.865 39.7692C30.865 38.0489 28.8777 34 27.065 34ZM27.065 41.6923C26.5612 41.6918 26.0783 41.489 25.7221 41.1285C25.3658 40.768 25.1655 40.2791 25.165 39.7692C25.165 38.6838 26.4137 36.509 27.065 35.9907C27.7163 36.509 28.965 38.6838 28.965 39.7692C28.9645 40.2791 28.7642 40.768 28.4079 41.1285C28.0517 41.489 27.5688 41.6918 27.065 41.6923Z" fill="#FEFEFE"/>
</svg>
