<svg width="62" height="68" viewBox="0 0 62 68" fill="none" xmlns="http://www.w3.org/2000/svg">
<rect width="62" height="68" fill="#DD2F30"/>
<path d="M31 16.1562C25.5318 16.1626 20.2894 18.398 16.4228 22.372C12.5562 26.346 10.3812 31.7341 10.375 37.3542C10.375 42.6536 11.7043 47.0686 14.3266 50.4776C14.4143 50.5919 14.5261 50.6842 14.6536 50.7476C14.7811 50.811 14.9209 50.8439 15.0625 50.8438H46.9375C47.0791 50.8439 47.2189 50.811 47.3464 50.7476C47.4739 50.6842 47.5857 50.5919 47.6734 50.4776C50.2957 47.0686 51.625 42.6536 51.625 37.3542C51.6188 31.7341 49.4438 26.346 45.5772 22.372C41.7106 18.398 36.4682 16.1626 31 16.1562ZM46.4742 48.9167H15.5258C13.3523 45.9046 12.25 42.0177 12.25 37.3542C12.25 32.2432 14.2254 27.3416 17.7417 23.7276C21.2581 20.1136 26.0272 18.0833 31 18.0833C35.9728 18.0833 40.7419 20.1136 44.2583 23.7276C47.7746 27.3416 49.75 32.2432 49.75 37.3542C49.75 42.0177 48.6477 45.9046 46.4742 48.9167Z" fill="#FEFEFE"/>
<path d="M31 23.8645C31.1231 23.8646 31.2451 23.8397 31.3589 23.7914C31.4726 23.743 31.576 23.672 31.6631 23.5825C31.7501 23.493 31.8192 23.3868 31.8663 23.2698C31.9134 23.1529 31.9376 23.0276 31.9375 22.901V20.9739C31.9375 20.7184 31.8387 20.4733 31.6629 20.2926C31.4871 20.1119 31.2486 20.0104 31 20.0104C30.7514 20.0104 30.5129 20.1119 30.3371 20.2926C30.1613 20.4733 30.0625 20.7184 30.0625 20.9739V22.901C30.0624 23.0276 30.0866 23.1529 30.1337 23.2698C30.1808 23.3868 30.2499 23.493 30.3369 23.5825C30.424 23.672 30.5274 23.743 30.6411 23.7914C30.7549 23.8397 30.8769 23.8646 31 23.8645Z" fill="#FEFEFE"/>
<path d="M21.1691 24.831C20.993 24.6503 20.7544 24.5489 20.5056 24.5491C20.2568 24.5492 20.0183 24.651 19.8425 24.8319C19.6667 25.0128 19.568 25.2581 19.5682 25.5138C19.5683 25.7695 19.6673 26.0147 19.8434 26.1954L21.1709 27.5579C21.347 27.7385 21.5856 27.8399 21.8344 27.8398C22.0832 27.8396 22.3217 27.7378 22.4975 27.5569C22.6733 27.376 22.772 27.1307 22.7718 26.875C22.7716 26.6193 22.6726 26.3742 22.4966 26.1935L21.1691 24.831Z" fill="#FEFEFE"/>
<path d="M42.1566 24.8318C41.9808 24.6514 41.7425 24.55 41.494 24.5498C41.2455 24.5496 41.0071 24.6507 40.831 24.8309L39.5034 26.1934C39.3286 26.3744 39.2306 26.6191 39.2309 26.8742C39.2313 27.1292 39.3299 27.3737 39.5052 27.5541C39.6806 27.7346 39.9183 27.8363 40.1664 27.8369C40.4146 27.8376 40.6528 27.7373 40.8291 27.5578L42.1566 26.1953C42.3325 26.0145 42.4313 25.7692 42.4313 25.5136C42.4313 25.2579 42.3325 25.0127 42.1566 24.8318Z" fill="#FEFEFE"/>
<path d="M43.6416 43.1109C43.5545 43.0214 43.451 42.9505 43.3372 42.9021C43.2233 42.8537 43.1013 42.8289 42.9781 42.829C42.7293 42.8292 42.4908 42.9309 42.315 43.1118C42.1392 43.2928 42.0405 43.5381 42.0407 43.7938C42.0409 44.0495 42.1399 44.2946 42.3159 44.4753L43.6435 45.8378C43.8197 46.0173 44.058 46.1176 44.3062 46.1169C44.5543 46.1162 44.792 46.0145 44.9674 45.8341C45.1427 45.6536 45.2413 45.4091 45.2416 45.1541C45.242 44.8991 45.144 44.6543 44.9691 44.4734L43.6416 43.1109Z" fill="#FEFEFE"/>
<path d="M18.3584 43.1109L17.0309 44.4734C16.856 44.6543 16.758 44.8991 16.7583 45.1541C16.7587 45.4092 16.8573 45.6537 17.0326 45.8341C17.208 46.0146 17.4457 46.1163 17.6938 46.117C17.942 46.1177 18.1803 46.0173 18.3565 45.8378L19.6841 44.4753C19.8589 44.2944 19.9569 44.0496 19.9566 43.7946C19.9563 43.5396 19.8577 43.2951 19.6823 43.1147C19.507 42.9342 19.2692 42.8325 19.0211 42.8318C18.773 42.8311 18.5347 42.9315 18.3584 43.1109Z" fill="#FEFEFE"/>
<path d="M18.8125 35.427C18.8126 35.3005 18.7884 35.1752 18.7413 35.0582C18.6942 34.9413 18.6251 34.835 18.5381 34.7455C18.451 34.6561 18.3476 34.5851 18.2339 34.5367C18.1201 34.4883 17.9981 34.4634 17.875 34.4635H16C15.7514 34.4635 15.5129 34.565 15.3371 34.7457C15.1613 34.9264 15.0625 35.1715 15.0625 35.427C15.0625 35.6826 15.1613 35.9277 15.3371 36.1084C15.5129 36.2891 15.7514 36.3906 16 36.3906H17.875C17.9981 36.3907 18.1201 36.3658 18.2339 36.3174C18.3476 36.269 18.451 36.198 18.5381 36.1085C18.6251 36.0191 18.6942 35.9128 18.7413 35.7959C18.7884 35.6789 18.8126 35.5536 18.8125 35.427Z" fill="#FEFEFE"/>
<path d="M46 34.4635H44.125C43.8764 34.4635 43.6379 34.565 43.4621 34.7457C43.2863 34.9264 43.1875 35.1715 43.1875 35.427C43.1875 35.6826 43.2863 35.9277 43.4621 36.1084C43.6379 36.2891 43.8764 36.3906 44.125 36.3906H46C46.2486 36.3906 46.4871 36.2891 46.6629 36.1084C46.8387 35.9277 46.9375 35.6826 46.9375 35.427C46.9375 35.1715 46.8387 34.9264 46.6629 34.7457C46.4871 34.565 46.2486 34.4635 46 34.4635Z" fill="#FEFEFE"/>
<path d="M35.4476 30.3629L32.142 33.7611C31.5256 33.4701 30.8289 33.4129 30.1754 33.5999C29.5219 33.7868 28.954 34.2057 28.5726 34.7822C28.1912 35.3587 28.0209 36.0554 28.0919 36.7488C28.163 37.4421 28.4708 38.0871 28.9608 38.5692C29.4507 39.0514 30.091 39.3395 30.7681 39.3823C31.4451 39.4252 32.115 39.2201 32.6588 38.8034C33.2027 38.3867 33.5852 37.7855 33.7385 37.1064C33.8919 36.4273 33.8061 35.7143 33.4964 35.094L36.7733 31.7254C36.9447 31.5438 37.0397 31.3002 37.0379 31.0472C37.036 30.7942 36.9374 30.5521 36.7633 30.3732C36.5892 30.1943 36.3537 30.0929 36.1075 30.091C35.8614 30.089 35.6243 30.1867 35.4476 30.3629ZM31 37.3608C30.8146 37.3608 30.6333 37.3043 30.4792 37.1984C30.325 37.0925 30.2048 36.942 30.1339 36.766C30.0629 36.5899 30.0443 36.3962 30.0805 36.2093C30.1167 36.0224 30.206 35.8507 30.3371 35.7159C30.4682 35.5812 30.6352 35.4894 30.8171 35.4522C30.999 35.415 31.1875 35.4341 31.3588 35.507C31.5301 35.58 31.6765 35.7035 31.7795 35.8619C31.8825 36.0204 31.9375 36.2067 31.9375 36.3972C31.9372 36.6527 31.8383 36.8976 31.6626 37.0782C31.4868 37.2588 31.2485 37.3605 31 37.3608Z" fill="#FEFEFE"/>
</svg>
