<svg width="61" height="61" viewBox="0 0 61 61" fill="none" xmlns="http://www.w3.org/2000/svg">
<g clip-path="url(#clip0_10_1570)">
<g clip-path="url(#clip1_10_1570)">
<path d="M30.5 2.84375V7.53125" stroke="#FF5CF4" stroke-width="3" stroke-miterlimit="10" stroke-linecap="round" stroke-linejoin="round"/>
<path d="M49.25 2.84375L44.5625 7.53125" stroke="#FF5CF4" stroke-width="3" stroke-miterlimit="10" stroke-linecap="round" stroke-linejoin="round"/>
<path d="M15.9738 37.1607C14.8072 35.9056 14.0938 34.2236 14.0938 32.375C14.0938 31.2464 14.3596 30.1799 14.8323 29.2346L19.5198 19.8596C20.6732 17.5528 23.0579 15.9688 25.8125 15.9688H18.7812C16.0266 15.9688 13.642 17.5528 12.4885 19.8596L7.80102 29.2346C7.3284 30.1799 7.0625 31.2464 7.0625 32.375C7.0625 34.2236 7.77594 35.9056 8.94254 37.1607L27.0658 56.6591C27.9218 57.5802 29.1436 58.1562 30.5 58.1562C31.8564 58.1562 33.0782 57.5802 33.9342 56.6593L34.0156 56.5716L15.9738 37.1607Z" fill="#EEF1FB"/>
<path d="M48.5115 19.8596L53.199 29.2346C53.6716 30.1797 53.9375 31.2464 53.9375 32.375C53.9375 34.2236 53.2241 35.9057 52.0575 37.1608L33.9342 56.6593C33.0782 57.5802 31.8564 58.1562 30.5 58.1562C29.1436 58.1562 27.9218 57.5802 27.0658 56.6593L8.94254 37.1608C7.77594 35.9057 7.0625 34.2236 7.0625 32.375C7.0625 31.2464 7.3284 30.1797 7.80102 29.2346L12.4885 19.8596C13.642 17.5527 16.0266 15.9688 18.7812 15.9688H42.2188C44.9734 15.9688 47.358 17.5527 48.5115 19.8596Z" stroke="#405FF2" stroke-width="3" stroke-miterlimit="10" stroke-linecap="round" stroke-linejoin="round"/>
<path d="M11.75 2.84375L16.4375 7.53125" stroke="#FF5CF4" stroke-width="3" stroke-miterlimit="10" stroke-linecap="round" stroke-linejoin="round"/>
<path d="M17.8848 30.0312H43.115" stroke="#405FF2" stroke-width="3" stroke-miterlimit="10" stroke-linecap="round" stroke-linejoin="round"/>
<path d="M25.8125 25.3438L30.5 30.0312L35.1875 25.3438" stroke="#405FF2" stroke-width="3" stroke-miterlimit="10" stroke-linecap="round" stroke-linejoin="round"/>
<path d="M30.5 44.0939V30.2307" stroke="#405FF2" stroke-width="3" stroke-miterlimit="10" stroke-linecap="round" stroke-linejoin="round"/>
</g>
</g>
<defs>
<clipPath id="clip0_10_1570">
<rect width="60" height="60" fill="white" transform="translate(0.5 0.5)"/>
</clipPath>
<clipPath id="clip1_10_1570">
<rect width="60" height="60" fill="white" transform="translate(0.5 0.5)"/>
</clipPath>
</defs>
</svg>
