<svg width="62" height="68" viewBox="0 0 62 68" fill="none" xmlns="http://www.w3.org/2000/svg">
<rect width="62" height="68" fill="#DD2F30"/>
<g clip-path="url(#clip0_3_2712)">
<path d="M51 28.0972V20.2289H48.9433V14.413H40.6615V20.2289H36.818L36.8487 15.63L24.1967 15.5378L24.1654 20.2289H20.3385V14.413H12.0567V20.2289H10V28.0972H11.4414V45.7744H10V53.6427H51V45.7744H49.3984V28.0972H51ZM48.5977 51.1315H12.4023V48.2855H48.5977V51.1315ZM13.8438 45.7744V28.1544H46.9961V45.7744H13.8438ZM12.4023 22.74H48.5977V25.586H12.4023V22.74ZM43.0638 16.9241H46.541V20.2289H43.0638V16.9241ZM26.5821 18.0666L34.4298 18.1235L34.4157 20.2289H26.5677L26.5821 18.0666ZM14.459 16.9241H17.9362V20.2289H14.459V16.9241Z" fill="#FEFEFE"/>
<path d="M34.2339 35.7087H42.706V38.2199H34.2339V35.7087Z" fill="#FEFEFE"/>
<path d="M23.7315 32.5367H21.3291V35.7087H18.2943V38.2199H21.3291V41.3922H23.7315V38.2199H26.766V35.7087H23.7315V32.5367Z" fill="#FEFEFE"/>
</g>
<defs>
<clipPath id="clip0_3_2712">
<rect width="41" height="40" fill="white" transform="translate(10 14)"/>
</clipPath>
</defs>
</svg>
