<svg width="54" height="54" viewBox="0 0 54 54" fill="none" xmlns="http://www.w3.org/2000/svg">
<path d="M49.1364 20.7736L33.2264 4.86355C33.1219 4.759 32.9979 4.67607 32.8614 4.61948C32.7249 4.56289 32.5786 4.53377 32.4308 4.53377C32.2831 4.53377 32.1368 4.56289 32.0003 4.61948C31.8638 4.67607 31.7398 4.759 31.6353 4.86355L29.2488 7.25007L46.7499 24.7512L49.1364 22.3647C49.241 22.2602 49.3239 22.1362 49.3805 21.9997C49.4371 21.8632 49.4662 21.7169 49.4662 21.5692C49.4662 21.4214 49.4371 21.2751 49.3805 21.1386C49.3239 21.0021 49.241 20.8781 49.1364 20.7736Z" fill="#DD2F30"/>
<path d="M15.7081 43.065L27.6578 31.1153L22.8847 26.3422L10.935 38.2919C9.76628 38.1249 8.57467 38.33 7.52895 38.8779C6.48323 39.4258 5.63642 40.2889 5.10847 41.3448C4.58051 42.4008 4.39818 43.5961 4.58729 44.7614C4.77641 45.9267 5.32739 47.003 6.16218 47.8378C6.99697 48.6726 8.07326 49.2236 9.23859 49.4127C10.4039 49.6018 11.5992 49.4195 12.6552 48.8915C13.7111 48.3636 14.5742 47.5168 15.1221 46.4711C15.67 45.4253 15.8751 44.2337 15.7081 43.065Z" fill="#DD2F30"/>
<path d="M16.5206 19.9782C16.4161 20.0826 16.3331 20.2066 16.2765 20.3431C16.22 20.4796 16.1908 20.6259 16.1908 20.7737C16.1908 20.9214 16.22 21.0677 16.2765 21.2043C16.3331 21.3408 16.4161 21.4648 16.5206 21.5692L18.1116 23.1602C18.216 23.2647 18.34 23.3476 18.4765 23.4042C18.613 23.4608 18.7593 23.4899 18.9071 23.4899C19.0549 23.4899 19.2012 23.4608 19.3377 23.4042C19.4742 23.3476 19.5982 23.2647 19.7026 23.1602L21.2936 21.5692L32.4308 32.7062L30.8398 34.2973C30.7353 34.4017 30.6523 34.5257 30.5958 34.6622C30.5392 34.7987 30.51 34.945 30.51 35.0928C30.51 35.2405 30.5392 35.3869 30.5958 35.5234C30.6523 35.6599 30.7353 35.7839 30.8398 35.8883L32.4308 37.4794C32.5352 37.5839 32.6592 37.6669 32.7957 37.7235C32.9322 37.78 33.0786 37.8092 33.2263 37.8092C33.3741 37.8092 33.5204 37.78 33.6569 37.7235C33.7934 37.6669 33.9174 37.5839 34.0218 37.4794L45.1589 26.3422L27.6578 8.84105L16.5206 19.9782ZM33.2262 20.7736C33.5409 21.0883 33.7552 21.4892 33.842 21.9257C33.9288 22.3621 33.8842 22.8145 33.7139 23.2257C33.5436 23.6368 33.2552 23.9882 32.8852 24.2354C32.5152 24.4826 32.0802 24.6146 31.6352 24.6146C31.1902 24.6146 30.7552 24.4826 30.3852 24.2354C30.0152 23.9882 29.7268 23.6368 29.5565 23.2257C29.3862 22.8145 29.3416 22.3621 29.4284 21.9257C29.5152 21.4892 29.7295 21.0883 30.0442 20.7736C30.2531 20.5647 30.5012 20.3989 30.7742 20.2858C31.0472 20.1727 31.3398 20.1145 31.6353 20.1145C31.9308 20.1145 32.2234 20.1727 32.4964 20.2858C32.7694 20.3989 33.0173 20.5647 33.2262 20.7736Z" fill="#DD2F30"/>
</svg>
