<svg width="24" height="25" viewBox="0 0 24 25" fill="none" xmlns="http://www.w3.org/2000/svg">
<path fill-rule="evenodd" clip-rule="evenodd" d="M17.5616 21.5007C17.4036 21.5007 17.2446 21.4637 17.0986 21.3877L11.9996 18.7237L6.90159 21.3877C6.56359 21.5627 6.15559 21.5327 5.84959 21.3087C5.54159 21.0847 5.38859 20.7057 5.45359 20.3307L6.42459 14.7027L2.30459 10.7177C2.03059 10.4527 1.93159 10.0547 2.04859 9.6907C2.16559 9.3287 2.47859 9.0637 2.85659 9.0097L8.55659 8.1817L11.1046 3.0557C11.4426 2.3757 12.5576 2.3757 12.8956 3.0557L15.4436 8.1817L21.1436 9.0097C21.5216 9.0637 21.8346 9.3287 21.9516 9.6907C22.0686 10.0547 21.9696 10.4527 21.6956 10.7177L17.5756 14.7027L18.5466 20.3307C18.6116 20.7057 18.4576 21.0847 18.1506 21.3087C17.9766 21.4367 17.7696 21.5007 17.5616 21.5007Z" fill="#FFBB38"/>
<mask id="mask0_3_2672" style="mask-type:luminance" maskUnits="userSpaceOnUse" x="2" y="2" width="20" height="20">
<path fill-rule="evenodd" clip-rule="evenodd" d="M17.5616 21.5007C17.4036 21.5007 17.2446 21.4637 17.0986 21.3877L11.9996 18.7237L6.90159 21.3877C6.56359 21.5627 6.15559 21.5327 5.84959 21.3087C5.54159 21.0847 5.38859 20.7057 5.45359 20.3307L6.42459 14.7027L2.30459 10.7177C2.03059 10.4527 1.93159 10.0547 2.04859 9.6907C2.16559 9.3287 2.47859 9.0637 2.85659 9.0097L8.55659 8.1817L11.1046 3.0557C11.4426 2.3757 12.5576 2.3757 12.8956 3.0557L15.4436 8.1817L21.1436 9.0097C21.5216 9.0637 21.8346 9.3287 21.9516 9.6907C22.0686 10.0547 21.9696 10.4527 21.6956 10.7177L17.5756 14.7027L18.5466 20.3307C18.6116 20.7057 18.4576 21.0847 18.1506 21.3087C17.9766 21.4367 17.7696 21.5007 17.5616 21.5007Z" fill="white"/>
</mask>
<g mask="url(#mask0_3_2672)">
<rect y="0.5" width="24" height="24" fill="#FFBB38"/>
</g>
</svg>
