<svg width="154" height="36" viewBox="0 0 154 36" fill="none" xmlns="http://www.w3.org/2000/svg">
<path d="M6.308 25.5138C4.66133 25.5138 3.35667 25.0578 2.394 24.1458C1.43133 23.2211 0.95 21.9038 0.95 20.1938V17.0018C0.95 15.2918 1.43133 13.9808 2.394 13.0688C3.35667 12.1441 4.66133 11.6818 6.308 11.6818C7.942 11.6818 9.20233 12.1315 10.089 13.0308C10.9883 13.9175 11.438 15.1398 11.438 16.6978V16.8118H8.968V16.6218C8.968 15.8365 8.74633 15.1905 8.303 14.6838C7.87233 14.1771 7.20733 13.9238 6.308 13.9238C5.42133 13.9238 4.72467 14.1961 4.218 14.7408C3.71133 15.2855 3.458 16.0265 3.458 16.9638V20.2318C3.458 21.1565 3.71133 21.8975 4.218 22.4548C4.72467 22.9995 5.42133 23.2718 6.308 23.2718C7.20733 23.2718 7.87233 23.0185 8.303 22.5118C8.74633 21.9925 8.968 21.3465 8.968 20.5738V20.2318H11.438V20.4978C11.438 22.0558 10.9883 23.2845 10.089 24.1838C9.20233 25.0705 7.942 25.5138 6.308 25.5138ZM14.3211 25.2478L17.8171 11.9478H22.1871L25.6831 25.2478H23.0991L22.3771 22.3218H17.6271L16.9051 25.2478H14.3211ZM18.2161 20.0038H21.7881L20.1731 13.5248H19.8311L18.2161 20.0038ZM28.2631 25.2478L31.7591 11.9478H36.1291L39.6251 25.2478H37.0411L36.3191 22.3218H31.5691L30.8471 25.2478H28.2631ZM32.1581 20.0038H35.7301L34.1151 13.5248H33.7731L32.1581 20.0038ZM43.1171 25.2478V11.9478H48.8931C49.7291 11.9478 50.4574 12.0935 51.0781 12.3848C51.6988 12.6761 52.1801 13.0878 52.5221 13.6198C52.8641 14.1518 53.0351 14.7788 53.0351 15.5008V15.7288C53.0351 16.5268 52.8451 17.1728 52.4651 17.6668C52.0851 18.1608 51.6164 18.5218 51.0591 18.7498V19.0918C51.5658 19.1171 51.9584 19.2945 52.2371 19.6238C52.5158 19.9405 52.6551 20.3648 52.6551 20.8968V25.2478H50.1471V21.2578C50.1471 20.9538 50.0648 20.7068 49.9001 20.5168C49.7481 20.3268 49.4884 20.2318 49.1211 20.2318H45.6251V25.2478H43.1171ZM45.6251 17.9518H48.6271C49.2224 17.9518 49.6848 17.7935 50.0141 17.4768C50.3561 17.1475 50.5271 16.7168 50.5271 16.1848V15.9948C50.5271 15.4628 50.3624 15.0385 50.0331 14.7218C49.7038 14.3925 49.2351 14.2278 48.6271 14.2278H45.6251V17.9518Z" fill="#FEFEFE"/>
<path d="M91.2703 12.5385H88.8181C88.6827 12.5401 88.5527 12.5924 88.4539 12.685C87.6708 11.4349 86.8603 10.4341 86.2314 9.80518C84.0439 7.61768 70.9189 7.61768 68.7314 9.80518C68.1047 10.433 67.2986 11.4272 66.5198 12.6686C66.426 12.5878 66.3068 12.5425 66.183 12.5406H63.7297C63.4289 12.5406 63.1828 12.7878 63.1828 13.0875V14.1922C63.1828 14.4919 63.4234 14.7828 63.7187 14.8408L65.2062 15.1252C63.9222 17.9886 63.1653 21.5521 64.3553 25.1221V27.2406C64.3553 27.8455 64.5084 28.3344 64.6976 28.3344H67.4998C67.6891 28.3344 67.8422 27.8455 67.8422 27.2406V25.5081C70.3556 25.7488 73.9125 26.0113 77.4803 26.0113C81.0153 26.0113 84.6115 25.7531 87.1206 25.5147V27.2406C87.1206 27.8455 87.2737 28.3344 87.4619 28.3344H90.2641C90.4522 28.3344 90.6053 27.8455 90.6053 27.2406L90.6031 25.121C91.792 21.5553 91.0373 17.9941 89.7555 15.1306L91.278 14.8408C91.4266 14.807 91.5598 14.7249 91.6567 14.6074C91.7537 14.4898 91.809 14.3434 91.8139 14.1911V13.0864C91.8142 13.0148 91.8003 12.9438 91.7732 12.8776C91.746 12.8113 91.706 12.751 91.6555 12.7002C91.605 12.6494 91.545 12.6091 91.4789 12.5815C91.4128 12.554 91.3419 12.5397 91.2703 12.5396V12.5385ZM67.7733 21.4274C67.259 21.4103 66.7716 21.194 66.4139 20.8242C66.0561 20.4544 65.8562 19.96 65.8562 19.4455C65.8562 18.931 66.0561 18.4366 66.4139 18.0668C66.7716 17.697 67.259 17.4807 67.7733 17.4636C68.2875 17.4808 68.7749 17.6973 69.1325 18.0672C69.4901 18.4371 69.69 18.9315 69.6898 19.446C69.6897 19.9605 69.4896 20.4548 69.1318 20.8246C68.7739 21.1943 68.2875 21.4104 67.7733 21.4274ZM66.1064 15.7508C67.1564 13.3478 68.6187 11.4666 69.5047 10.5785C70.1434 9.93861 73.1578 9.2583 77.4803 9.2583C81.8039 9.2583 84.8172 9.93971 85.457 10.5796C86.343 11.4655 87.8042 13.3467 88.8542 15.7508C86.5223 16.0089 81.98 15.4117 77.4814 15.4117C72.9828 15.4117 68.4405 16.0089 66.1064 15.7508ZM87.1873 21.4274C86.6731 21.4103 86.1856 21.194 85.8279 20.8242C85.4702 20.4544 85.2702 19.96 85.2702 19.4455C85.2702 18.931 85.4702 18.4366 85.8279 18.0668C86.1856 17.697 86.6731 17.4807 87.1873 17.4636C87.7016 17.4808 88.189 17.6973 88.5466 18.0672C88.9042 18.4371 89.104 18.9315 89.1039 19.446C89.1038 19.9605 88.9036 20.4548 88.5458 20.8246C88.188 21.1943 87.7016 21.4104 87.1873 21.4274Z" fill="#DD2F30"/>
<path d="M101.874 25.2478V22.0558L108.448 14.4938V14.1898H102.064V11.9478H111.07V15.1398L104.496 22.7018V23.0058H111.108V25.2478H101.874ZM120.047 25.5138C118.375 25.5138 117.045 25.0578 116.057 24.1458C115.069 23.2211 114.575 21.9038 114.575 20.1938V17.0018C114.575 15.2918 115.069 13.9808 116.057 13.0688C117.045 12.1441 118.375 11.6818 120.047 11.6818C121.719 11.6818 123.049 12.1441 124.037 13.0688C125.025 13.9808 125.519 15.2918 125.519 17.0018V20.1938C125.519 21.9038 125.025 23.2211 124.037 24.1458C123.049 25.0578 121.719 25.5138 120.047 25.5138ZM120.047 23.2718C120.984 23.2718 121.712 22.9995 122.232 22.4548C122.751 21.9101 123.011 21.1818 123.011 20.2698V16.9258C123.011 16.0138 122.751 15.2855 122.232 14.7408C121.712 14.1961 120.984 13.9238 120.047 13.9238C119.122 13.9238 118.394 14.1961 117.862 14.7408C117.342 15.2855 117.083 16.0138 117.083 16.9258V20.2698C117.083 21.1818 117.342 21.9101 117.862 22.4548C118.394 22.9995 119.122 23.2718 120.047 23.2718ZM129.618 25.2478V11.9478H134.387L137.028 23.5378H137.37V11.9478H139.84V25.2478H135.071L132.43 13.6578H132.088V25.2478H129.618ZM144.247 25.2478V11.9478H152.797V14.2278H146.755V17.4008H152.265V19.6808H146.755V22.9678H152.911V25.2478H144.247Z" fill="#FEFEFE"/>
</svg>
